<?xml version="1.0" encoding="UTF-8"?>
<svg xmlns="http://www.w3.org/2000/svg" viewBox="0 0 820 420" role="img" aria-label="Backend runtime performance v1 request flow">
  <defs>
    <marker id="arrow" markerWidth="8" markerHeight="8" refX="6" refY="3" orient="auto">
      <path d="M0,0 L6,3 L0,6 Z" fill="#334155"/>
    </marker>
  </defs>
  <rect width="820" height="420" fill="#f8fafc"/>
  <text x="410" y="28" text-anchor="middle" font-family="system-ui,sans-serif" font-size="18" font-weight="600" fill="#0f172a">Backend runtime performance v1 — read path</text>
  <rect x="30" y="55" width="760" height="70" rx="8" fill="#e0f2fe" stroke="#0284c7"/>
  <text x="45" y="82" font-family="system-ui,sans-serif" font-size="13" fill="#0c4a6e">Every authenticated request</text>
  <rect x="50" y="95" width="150" height="22" rx="4" fill="#fff" stroke="#0284c7"/>
  <text x="125" y="110" text-anchor="middle" font-size="11" fill="#0f172a">JWT validate</text>
  <rect x="220" y="95" width="200" height="22" rx="4" fill="#fff" stroke="#0284c7"/>
  <text x="320" y="110" text-anchor="middle" font-size="11" fill="#0f172a">AccessTokenVersionCache (BE-RP1)</text>
  <rect x="30" y="145" width="360" height="110" rx="8" fill="#dcfce7" stroke="#16a34a"/>
  <text x="45" y="168" font-family="system-ui,sans-serif" font-size="13" fill="#14532d">Portal bootstrap</text>
  <rect x="50" y="180" width="150" height="22" rx="4" fill="#fff" stroke="#16a34a"/>
  <text x="125" y="195" text-anchor="middle" font-size="10" fill="#0f172a">FacesConfig cache</text>
  <rect x="220" y="180" width="150" height="22" rx="4" fill="#fff" stroke="#16a34a"/>
  <text x="295" y="195" text-anchor="middle" font-size="10" fill="#0f172a">Capabilities cache</text>
  <rect x="50" y="215" width="320" height="22" rx="4" fill="#fff" stroke="#16a34a"/>
  <text x="210" y="230" text-anchor="middle" font-size="10" fill="#0f172a">Grid snapshot BFF (BE-RP8) ? shared list services</text>
  <rect x="410" y="145" width="380" height="110" rx="8" fill="#fef3c7" stroke="#d97706"/>
  <text x="425" y="168" font-family="system-ui,sans-serif" font-size="13" fill="#78350f">Admin / search</text>
  <rect x="430" y="180" width="160" height="22" rx="4" fill="#fff" stroke="#d97706"/>
  <text x="510" y="195" text-anchor="middle" font-size="10" fill="#0f172a">Stats cache (BE-RP4)</text>
  <rect x="610" y="180" width="160" height="22" rx="4" fill="#fff" stroke="#d97706"/>
  <text x="690" y="195" text-anchor="middle" font-size="10" fill="#0f172a">Search outbox batch</text>
  <rect x="430" y="215" width="340" height="22" rx="4" fill="#fff" stroke="#d97706"/>
  <text x="600" y="230" text-anchor="middle" font-size="10" fill="#0f172a">Autocomplete cache + parallel gRPC (BE-RP5/6)</text>
  <rect x="30" y="275" width="760" height="110" rx="8" fill="#f3e8ff" stroke="#9333ea"/>
  <text x="45" y="298" font-family="system-ui,sans-serif" font-size="13" fill="#581c87">Social / media</text>
  <rect x="50" y="310" width="220" height="22" rx="4" fill="#fff" stroke="#9333ea"/>
  <text x="160" y="325" text-anchor="middle" font-size="10" fill="#0f172a">Messenger SQL pagination (BE-RP3)</text>
  <rect x="290" y="310" width="200" height="22" rx="4" fill="#fff" stroke="#9333ea"/>
  <text x="390" y="325" text-anchor="middle" font-size="10" fill="#0f172a">Hub display cache (BE-RP14)</text>
  <rect x="510" y="310" width="260" height="22" rx="4" fill="#fff" stroke="#9333ea"/>
  <text x="640" y="325" text-anchor="middle" font-size="10" fill="#0f172a">Upload serve Cache-Control (BE-RP28)</text>
  <line x1="410" y1="125" x2="210" y2="145" stroke="#334155" marker-end="url(#arrow)"/>
  <line x1="410" y1="125" x2="600" y2="145" stroke="#334155" marker-end="url(#arrow)"/>
  <line x1="210" y1="255" x2="160" y2="275" stroke="#334155" marker-end="url(#arrow)"/>
</svg>
